<mxfile host="app.diagrams.net" modified="2023-10-06T17:29:32.238Z" agent="Mozilla/5.0 (Windows NT 10.0; Win64; x64) AppleWebKit/537.36 (KHTML, like Gecko) Chrome/117.0.0.0 Safari/537.36" etag="YuibBpShSaDHRXBrnS-T" version="22.0.3" type="device">
  <diagram id="R2lEEEUBdFMjLlhIrx00" name="Page-1">
    <mxGraphModel dx="1434" dy="790" grid="1" gridSize="10" guides="1" tooltips="1" connect="1" arrows="1" fold="1" page="1" pageScale="1" pageWidth="850" pageHeight="1100" math="0" shadow="0" extFonts="Permanent Marker^https://fonts.googleapis.com/css?family=Permanent+Marker">
      <root>
        <mxCell id="0" />
        <mxCell id="1" parent="0" />
        <mxCell id="-gcsnalx-fvy34UCijWT-9" value="&lt;font style=&quot;font-size: 18px;&quot;&gt;(0:1)&lt;/font&gt;" style="text;html=1;align=center;verticalAlign=middle;resizable=0;points=[];autosize=1;strokeColor=none;fillColor=none;" parent="1" vertex="1">
          <mxGeometry x="230" y="250" width="60" height="40" as="geometry" />
        </mxCell>
        <mxCell id="-gcsnalx-fvy34UCijWT-27" value="&lt;span style=&quot;font-size: 24px;&quot;&gt;Pedido&lt;/span&gt;" style="whiteSpace=wrap;html=1;align=center;" parent="1" vertex="1">
          <mxGeometry x="650" y="132.5" width="190" height="110" as="geometry" />
        </mxCell>
        <mxCell id="-gcsnalx-fvy34UCijWT-28" value="&lt;font style=&quot;font-size: 24px;&quot;&gt;Cliente&amp;nbsp;&lt;/font&gt;" style="whiteSpace=wrap;html=1;align=center;" parent="1" vertex="1">
          <mxGeometry x="30" y="137.5" width="200" height="105" as="geometry" />
        </mxCell>
        <mxCell id="-gcsnalx-fvy34UCijWT-29" value="" style="edgeStyle=orthogonalEdgeStyle;rounded=0;orthogonalLoop=1;jettySize=auto;html=1;endArrow=none;endFill=0;" parent="1" target="-gcsnalx-fvy34UCijWT-27" edge="1">
          <mxGeometry relative="1" as="geometry">
            <mxPoint x="540" y="190" as="sourcePoint" />
            <Array as="points">
              <mxPoint x="630" y="190" />
              <mxPoint x="630" y="190" />
            </Array>
          </mxGeometry>
        </mxCell>
        <mxCell id="-gcsnalx-fvy34UCijWT-30" value="" style="rounded=0;orthogonalLoop=1;jettySize=auto;html=1;endArrow=none;endFill=0;" parent="1" target="-gcsnalx-fvy34UCijWT-28" edge="1">
          <mxGeometry relative="1" as="geometry">
            <mxPoint x="340" y="190" as="sourcePoint" />
          </mxGeometry>
        </mxCell>
        <mxCell id="-gcsnalx-fvy34UCijWT-31" value="&lt;font style=&quot;font-size: 18px;&quot;&gt;(1:1)&lt;/font&gt;" style="text;html=1;align=center;verticalAlign=middle;resizable=0;points=[];autosize=1;strokeColor=none;fillColor=none;" parent="1" vertex="1">
          <mxGeometry x="240" y="143" width="60" height="40" as="geometry" />
        </mxCell>
        <mxCell id="-gcsnalx-fvy34UCijWT-32" value="&lt;font style=&quot;font-size: 18px;&quot;&gt;(0:N)&lt;/font&gt;" style="text;html=1;align=center;verticalAlign=middle;resizable=0;points=[];autosize=1;strokeColor=none;fillColor=none;" parent="1" vertex="1">
          <mxGeometry x="590" y="140" width="60" height="40" as="geometry" />
        </mxCell>
        <mxCell id="-gcsnalx-fvy34UCijWT-33" value="&lt;span style=&quot;font-size: 24px;&quot;&gt;Realiza&amp;nbsp;&lt;/span&gt;" style="rhombus;whiteSpace=wrap;html=1;" parent="1" vertex="1">
          <mxGeometry x="340" y="120" width="200" height="140" as="geometry" />
        </mxCell>
        <mxCell id="-gcsnalx-fvy34UCijWT-38" value="&lt;font style=&quot;font-size: 18px;&quot;&gt;(0:1)&lt;/font&gt;" style="text;html=1;align=center;verticalAlign=middle;resizable=0;points=[];autosize=1;strokeColor=none;fillColor=none;" parent="1" vertex="1">
          <mxGeometry x="60" y="270" width="60" height="40" as="geometry" />
        </mxCell>
        <mxCell id="-s0iNOd5FK__5MphaZw7-1" value="" style="endArrow=none;html=1;rounded=0;entryX=0.5;entryY=1;entryDx=0;entryDy=0;exitX=0.5;exitY=0;exitDx=0;exitDy=0;" edge="1" parent="1" source="-s0iNOd5FK__5MphaZw7-25">
          <mxGeometry width="50" height="50" relative="1" as="geometry">
            <mxPoint x="739.5" y="377.5" as="sourcePoint" />
            <mxPoint x="739.5" y="242.5" as="targetPoint" />
          </mxGeometry>
        </mxCell>
        <mxCell id="-s0iNOd5FK__5MphaZw7-4" value="&lt;font style=&quot;font-size: 24px;&quot;&gt;Producto&lt;/font&gt;" style="whiteSpace=wrap;html=1;align=center;" vertex="1" parent="1">
          <mxGeometry x="640" y="520" width="200" height="70" as="geometry" />
        </mxCell>
        <mxCell id="-s0iNOd5FK__5MphaZw7-25" value="&lt;span style=&quot;font-size: 24px;&quot;&gt;ICLUYE&lt;/span&gt;" style="rhombus;whiteSpace=wrap;html=1;" vertex="1" parent="1">
          <mxGeometry x="640" y="310" width="200" height="140" as="geometry" />
        </mxCell>
        <mxCell id="-s0iNOd5FK__5MphaZw7-29" value="&lt;font style=&quot;font-size: 18px;&quot;&gt;PEDIDO&lt;/font&gt;" style="rounded=0;whiteSpace=wrap;html=1;" vertex="1" parent="1">
          <mxGeometry x="670" y="150" width="150" height="80" as="geometry" />
        </mxCell>
        <mxCell id="-s0iNOd5FK__5MphaZw7-30" value="" style="endArrow=none;html=1;rounded=0;entryX=0.5;entryY=1;entryDx=0;entryDy=0;endFill=0;startArrow=none;startFill=0;" edge="1" parent="1">
          <mxGeometry width="50" height="50" relative="1" as="geometry">
            <mxPoint x="740" y="518" as="sourcePoint" />
            <mxPoint x="739.5" y="450" as="targetPoint" />
          </mxGeometry>
        </mxCell>
        <mxCell id="-s0iNOd5FK__5MphaZw7-33" value="" style="triangle;whiteSpace=wrap;html=1;rotation=90;" vertex="1" parent="1">
          <mxGeometry x="715" y="645" width="40" height="70" as="geometry" />
        </mxCell>
        <mxCell id="-s0iNOd5FK__5MphaZw7-34" value="" style="endArrow=none;html=1;rounded=0;entryX=0.5;entryY=1;entryDx=0;entryDy=0;endFill=0;startArrow=none;startFill=0;" edge="1" parent="1">
          <mxGeometry width="50" height="50" relative="1" as="geometry">
            <mxPoint x="740" y="658" as="sourcePoint" />
            <mxPoint x="739.5" y="590" as="targetPoint" />
          </mxGeometry>
        </mxCell>
        <mxCell id="-s0iNOd5FK__5MphaZw7-35" value="" style="endArrow=halfCircle;html=1;rounded=0;entryX=1;entryY=0.5;entryDx=0;entryDy=0;endFill=0;" edge="1" parent="1" target="-s0iNOd5FK__5MphaZw7-33">
          <mxGeometry width="50" height="50" relative="1" as="geometry">
            <mxPoint x="620" y="730" as="sourcePoint" />
            <mxPoint x="370" y="370" as="targetPoint" />
          </mxGeometry>
        </mxCell>
        <mxCell id="-s0iNOd5FK__5MphaZw7-36" value="" style="endArrow=halfCircle;html=1;rounded=0;entryX=1;entryY=0.5;entryDx=0;entryDy=0;startArrow=none;startFill=0;endFill=0;" edge="1" parent="1" target="-s0iNOd5FK__5MphaZw7-33">
          <mxGeometry width="50" height="50" relative="1" as="geometry">
            <mxPoint x="780" y="710" as="sourcePoint" />
            <mxPoint x="370" y="370" as="targetPoint" />
          </mxGeometry>
        </mxCell>
        <mxCell id="-s0iNOd5FK__5MphaZw7-37" value="&lt;font style=&quot;font-size: 18px;&quot;&gt;DROGUERÍA&lt;/font&gt;" style="rounded=0;whiteSpace=wrap;html=1;" vertex="1" parent="1">
          <mxGeometry x="550" y="710" width="140" height="70" as="geometry" />
        </mxCell>
        <mxCell id="-s0iNOd5FK__5MphaZw7-38" value="&lt;font style=&quot;font-size: 18px;&quot;&gt;ALIMENTACIÓN&lt;/font&gt;" style="rounded=0;whiteSpace=wrap;html=1;" vertex="1" parent="1">
          <mxGeometry x="700" y="710" width="140" height="70" as="geometry" />
        </mxCell>
        <mxCell id="-s0iNOd5FK__5MphaZw7-39" value="&lt;span style=&quot;font-size: 24px;&quot;&gt;Suministra&lt;/span&gt;" style="rhombus;whiteSpace=wrap;html=1;" vertex="1" parent="1">
          <mxGeometry x="340" y="470" width="200" height="140" as="geometry" />
        </mxCell>
        <mxCell id="-s0iNOd5FK__5MphaZw7-40" value="&lt;font style=&quot;font-size: 24px;&quot;&gt;Cliente&amp;nbsp;&lt;/font&gt;" style="whiteSpace=wrap;html=1;align=center;" vertex="1" parent="1">
          <mxGeometry x="30" y="137.5" width="200" height="105" as="geometry" />
        </mxCell>
        <mxCell id="-s0iNOd5FK__5MphaZw7-41" value="&lt;font style=&quot;font-size: 24px;&quot;&gt;Proveedor&lt;/font&gt;" style="whiteSpace=wrap;html=1;align=center;" vertex="1" parent="1">
          <mxGeometry x="50" y="485" width="200" height="105" as="geometry" />
        </mxCell>
        <mxCell id="-s0iNOd5FK__5MphaZw7-43" value="" style="endArrow=none;html=1;rounded=0;exitX=1;exitY=0.5;exitDx=0;exitDy=0;entryX=0;entryY=0.5;entryDx=0;entryDy=0;" edge="1" parent="1" source="-s0iNOd5FK__5MphaZw7-41" target="-s0iNOd5FK__5MphaZw7-39">
          <mxGeometry width="50" height="50" relative="1" as="geometry">
            <mxPoint x="270" y="560" as="sourcePoint" />
            <mxPoint x="320" y="510" as="targetPoint" />
          </mxGeometry>
        </mxCell>
        <mxCell id="-s0iNOd5FK__5MphaZw7-44" value="" style="endArrow=none;html=1;rounded=0;exitX=1;exitY=0.5;exitDx=0;exitDy=0;entryX=0;entryY=0.25;entryDx=0;entryDy=0;" edge="1" parent="1" target="-s0iNOd5FK__5MphaZw7-4">
          <mxGeometry width="50" height="50" relative="1" as="geometry">
            <mxPoint x="540" y="539" as="sourcePoint" />
            <mxPoint x="630" y="541" as="targetPoint" />
          </mxGeometry>
        </mxCell>
        <mxCell id="-s0iNOd5FK__5MphaZw7-45" value="&lt;font style=&quot;font-size: 18px;&quot;&gt;(0:N)&lt;/font&gt;" style="text;html=1;align=center;verticalAlign=middle;resizable=0;points=[];autosize=1;strokeColor=none;fillColor=none;" vertex="1" parent="1">
          <mxGeometry x="740" y="242.5" width="60" height="40" as="geometry" />
        </mxCell>
        <mxCell id="-s0iNOd5FK__5MphaZw7-46" value="&lt;font style=&quot;font-size: 18px;&quot;&gt;1:N&lt;/font&gt;" style="text;html=1;align=center;verticalAlign=middle;resizable=0;points=[];autosize=1;strokeColor=none;fillColor=none;" vertex="1" parent="1">
          <mxGeometry x="415" y="73" width="50" height="40" as="geometry" />
        </mxCell>
        <mxCell id="-s0iNOd5FK__5MphaZw7-47" value="&lt;font style=&quot;font-size: 18px;&quot;&gt;N:M&lt;/font&gt;" style="text;html=1;align=center;verticalAlign=middle;resizable=0;points=[];autosize=1;strokeColor=none;fillColor=none;" vertex="1" parent="1">
          <mxGeometry x="580" y="353" width="60" height="40" as="geometry" />
        </mxCell>
        <mxCell id="-s0iNOd5FK__5MphaZw7-48" value="&lt;font style=&quot;font-size: 18px;&quot;&gt;(1:N)&lt;/font&gt;" style="text;html=1;align=center;verticalAlign=middle;resizable=0;points=[];autosize=1;strokeColor=none;fillColor=none;" vertex="1" parent="1">
          <mxGeometry x="770" y="483" width="60" height="40" as="geometry" />
        </mxCell>
        <mxCell id="-s0iNOd5FK__5MphaZw7-49" value="&lt;font style=&quot;font-size: 18px;&quot;&gt;(1:1)&lt;/font&gt;" style="text;html=1;align=center;verticalAlign=middle;resizable=0;points=[];autosize=1;strokeColor=none;fillColor=none;" vertex="1" parent="1">
          <mxGeometry x="240" y="483" width="60" height="40" as="geometry" />
        </mxCell>
        <mxCell id="-s0iNOd5FK__5MphaZw7-50" value="(0:N)" style="text;html=1;align=center;verticalAlign=middle;resizable=0;points=[];autosize=1;strokeColor=none;fillColor=none;" vertex="1" parent="1">
          <mxGeometry x="585" y="508" width="50" height="30" as="geometry" />
        </mxCell>
        <mxCell id="-s0iNOd5FK__5MphaZw7-51" value="&lt;font style=&quot;font-size: 18px;&quot;&gt;1:N&lt;/font&gt;" style="text;html=1;align=center;verticalAlign=middle;resizable=0;points=[];autosize=1;strokeColor=none;fillColor=none;" vertex="1" parent="1">
          <mxGeometry x="415" y="430" width="50" height="40" as="geometry" />
        </mxCell>
      </root>
    </mxGraphModel>
  </diagram>
</mxfile>
